<svg width="64" height="64" fill="none" xmlns="http://www.w3.org/2000/svg"><rect width="64" height="64" rx="18" fill="#fff"/><path d="M38.879 48.5H25.816v4.125H38.88V48.5Z" fill="#000"/><path d="M38.879 48.5H25.816v4.125H38.88V48.5Z" fill="url(#a)"/><path d="m20.431 11.686-9.236 9.236 2.43 2.431 9.237-9.236-2.43-2.431Z" fill="#000"/><path d="m20.431 11.686-9.236 9.236 2.43 2.431 9.237-9.236-2.43-2.431Z" fill="url(#b)"/><path d="m43.765 11.596-2.43 2.43 9.236 9.238L53 20.832l-9.236-9.237Z" fill="#000"/><path d="m43.765 11.596-2.43 2.43 9.236 9.238L53 20.832l-9.236-9.237Z" fill="url(#c)"/><path d="m40.633 16.673-1.85-.078a3.478 3.478 0 0 0-2.945.984l-3.785 3.784-3.955-3.955a2.64 2.64 0 0 0-2.653-.625 2.486 2.486 0 0 1-2.482-.62l-.587-.588-7.292 7.292 1.188 1.188-.079 1.85a3.477 3.477 0 0 0 .984 2.945l6.61 6.608a3.427 3.427 0 0 1 1.161-2.24l-2.059-2.059.486-.486 2.151 2.15a3.43 3.43 0 0 1 .978-.371v-2.54l-1.184-1.184.486-.486.698.698v-3.678a2.482 2.482 0 0 1 2.16-2.492c.228-.022.457-.012.682.03l-.846-.845.487-.486 1.235 1.235a2.434 2.434 0 0 1 2.34-1.312 2.476 2.476 0 0 1 2.182 2.29c.39-.185.824-.264 1.255-.227a2.49 2.49 0 0 1 2.193 2.518v2.354a3.44 3.44 0 0 1 2.623 2.492l1.917-1.917.486.486-2.279 2.28.003.027v2.283a2.725 2.725 0 0 0 1.635-.776l4.703-4.703a2.64 2.64 0 0 0 .624-2.652 2.488 2.488 0 0 1 .621-2.483l.587-.587-7.291-7.292-1.188 1.188Z" fill="#000"/><path d="m40.633 16.673-1.85-.078a3.478 3.478 0 0 0-2.945.984l-3.785 3.784-3.955-3.955a2.64 2.64 0 0 0-2.653-.625 2.486 2.486 0 0 1-2.482-.62l-.587-.588-7.292 7.292 1.188 1.188-.079 1.85a3.477 3.477 0 0 0 .984 2.945l6.61 6.608a3.427 3.427 0 0 1 1.161-2.24l-2.059-2.059.486-.486 2.151 2.15a3.43 3.43 0 0 1 .978-.371v-2.54l-1.184-1.184.486-.486.698.698v-3.678a2.482 2.482 0 0 1 2.16-2.492c.228-.022.457-.012.682.03l-.846-.845.487-.486 1.235 1.235a2.434 2.434 0 0 1 2.34-1.312 2.476 2.476 0 0 1 2.182 2.29c.39-.185.824-.264 1.255-.227a2.49 2.49 0 0 1 2.193 2.518v2.354a3.44 3.44 0 0 1 2.623 2.492l1.917-1.917.486.486-2.279 2.28.003.027v2.283a2.725 2.725 0 0 0 1.635-.776l4.703-4.703a2.64 2.64 0 0 0 .624-2.652 2.488 2.488 0 0 1 .621-2.483l.587-.587-7.291-7.292-1.188 1.188Z" fill="url(#d)"/><path d="M30.543 24.912a1.713 1.713 0 0 0-1.874-1.505 1.786 1.786 0 0 0-1.542 1.808v7.808a2.75 2.75 0 0 0-2.75 2.75v6.65a2.639 2.639 0 0 0 1.434 2.318 2.487 2.487 0 0 1 1.316 2.194v.83H37.44v-1.68l1.364-1.252a3.478 3.478 0 0 0 1.386-2.779V31.648a2.75 2.75 0 0 0-2.75-2.75v-2.972a1.803 1.803 0 0 0-1.565-1.834 1.714 1.714 0 0 0-1.844 1.443h.315v10.618h-.687V25.535h.343v-1.671a1.803 1.803 0 0 0-1.565-1.834 1.72 1.72 0 0 0-1.872 1.712v1.17h.344v10.617h-.688V24.912h.322Zm-3.141 13.99h-.688v-5.5h.688v5.5Zm9.694-9.79h.688v7.18h-.688v-7.18Z" fill="#000"/><path d="M30.543 24.912a1.713 1.713 0 0 0-1.874-1.505 1.786 1.786 0 0 0-1.542 1.808v7.808a2.75 2.75 0 0 0-2.75 2.75v6.65a2.639 2.639 0 0 0 1.434 2.318 2.487 2.487 0 0 1 1.316 2.194v.83H37.44v-1.68l1.364-1.252a3.478 3.478 0 0 0 1.386-2.779V31.648a2.75 2.75 0 0 0-2.75-2.75v-2.972a1.803 1.803 0 0 0-1.565-1.834 1.714 1.714 0 0 0-1.844 1.443h.315v10.618h-.687V25.535h.343v-1.671a1.803 1.803 0 0 0-1.565-1.834 1.72 1.72 0 0 0-1.872 1.712v1.17h.344v10.617h-.688V24.912h.322Zm-3.141 13.99h-.688v-5.5h.688v5.5Zm9.694-9.79h.688v7.18h-.688v-7.18Z" fill="url(#e)"/><defs><linearGradient id="a" x1="32.348" y1="48.5" x2="32.348" y2="52.625" gradientUnits="userSpaceOnUse"><stop stop-color="#EF8080"/><stop offset="1" stop-color="#F0145A"/></linearGradient><linearGradient id="b" x1="15.813" y1="16.304" x2="18.244" y2="18.735" gradientUnits="userSpaceOnUse"><stop stop-color="#EF8080"/><stop offset="1" stop-color="#F0145A"/></linearGradient><linearGradient id="c" x1="42.55" y1="12.812" x2="51.786" y2="22.048" gradientUnits="userSpaceOnUse"><stop stop-color="#EF8080"/><stop offset="1" stop-color="#F0145A"/></linearGradient><linearGradient id="d" x1="32.098" y1="15.485" x2="32.098" y2="35.459" gradientUnits="userSpaceOnUse"><stop stop-color="#EF8080"/><stop offset="1" stop-color="#F0145A"/></linearGradient><linearGradient id="e" x1="32.284" y1="22.023" x2="32.284" y2="47.766" gradientUnits="userSpaceOnUse"><stop stop-color="#EF8080"/><stop offset="1" stop-color="#F0145A"/></linearGradient></defs></svg>