<svg width="64" height="64" fill="none" xmlns="http://www.w3.org/2000/svg"><rect width="64" height="64" rx="18" fill="#fff"/><g clip-path="url(#a)"><path d="M51.612 35.938a3.857 3.857 0 0 0-4.357.986l-.838-.348-2.393-.99c.34-1.137.523-2.34.523-3.586a12.51 12.51 0 0 0-.523-3.585l2.393-.991.839-.348a3.857 3.857 0 0 0 4.356.986 3.871 3.871 0 0 0 2.093-5.053 3.857 3.857 0 0 0-3.574-2.388 3.873 3.873 0 0 0-3.86 4.072l-.844.35-2.391.99a12.638 12.638 0 0 0-5.07-5.069l.991-2.391.35-.843a3.857 3.857 0 0 0 3.777-2.382A3.872 3.872 0 0 0 39.512 10c-1.57 0-2.973.937-3.574 2.388a3.873 3.873 0 0 0 .987 4.354l-.348.841-.991 2.393A12.507 12.507 0 0 0 32 19.453c-1.245 0-2.448.183-3.585.523l-.99-2.393-.35-.84a3.873 3.873 0 0 0 .988-4.355A3.857 3.857 0 0 0 24.489 10a3.872 3.872 0 0 0-3.572 5.348 3.857 3.857 0 0 0 3.777 2.382l.35.843.99 2.392a12.637 12.637 0 0 0-5.069 5.069l-2.392-.99-.843-.35a3.874 3.874 0 0 0-3.86-4.072c-1.57 0-2.973.937-3.574 2.388a3.872 3.872 0 0 0 3.571 5.347 3.856 3.856 0 0 0 2.878-1.28l.839.347 2.392.99A12.503 12.503 0 0 0 19.453 32c0 1.245.184 2.449.523 3.585l-2.392.991-.84.348a3.857 3.857 0 0 0-4.356-.986 3.872 3.872 0 0 0-2.092 5.052 3.857 3.857 0 0 0 3.573 2.388 3.873 3.873 0 0 0 3.86-4.072l.844-.35 2.392-.99a12.637 12.637 0 0 0 5.069 5.07l-.99 2.391-.35.843a3.857 3.857 0 0 0-3.777 2.382A3.872 3.872 0 0 0 24.489 54c1.57 0 2.973-.937 3.573-2.388a3.873 3.873 0 0 0-.986-4.355l.348-.84.991-2.393c1.137.34 2.34.523 3.585.523 1.246 0 2.449-.183 3.585-.523l.991 2.393.349.84a3.874 3.874 0 0 0-.987 4.355A3.857 3.857 0 0 0 39.512 54a3.872 3.872 0 0 0 3.572-5.348 3.857 3.857 0 0 0-3.778-2.382l-.349-.843-.99-2.392a12.637 12.637 0 0 0 5.068-5.069l2.392.99.844.35a3.874 3.874 0 0 0 3.86 4.072c1.57 0 2.973-.937 3.574-2.388a3.871 3.871 0 0 0-2.093-5.053ZM32 41.968c-5.496 0-9.968-4.471-9.968-9.968s4.472-9.97 9.968-9.97c5.497 0 9.97 4.472 9.97 9.969 0 5.497-4.473 9.969-9.97 9.969Z" fill="#000"/><path d="M51.612 35.938a3.857 3.857 0 0 0-4.357.986l-.838-.348-2.393-.99c.34-1.137.523-2.34.523-3.586a12.51 12.51 0 0 0-.523-3.585l2.393-.991.839-.348a3.857 3.857 0 0 0 4.356.986 3.871 3.871 0 0 0 2.093-5.053 3.857 3.857 0 0 0-3.574-2.388 3.873 3.873 0 0 0-3.86 4.072l-.844.35-2.391.99a12.638 12.638 0 0 0-5.07-5.069l.991-2.391.35-.843a3.857 3.857 0 0 0 3.777-2.382A3.872 3.872 0 0 0 39.512 10c-1.57 0-2.973.937-3.574 2.388a3.873 3.873 0 0 0 .987 4.354l-.348.841-.991 2.393A12.507 12.507 0 0 0 32 19.453c-1.245 0-2.448.183-3.585.523l-.99-2.393-.35-.84a3.873 3.873 0 0 0 .988-4.355A3.857 3.857 0 0 0 24.489 10a3.872 3.872 0 0 0-3.572 5.348 3.857 3.857 0 0 0 3.777 2.382l.35.843.99 2.392a12.637 12.637 0 0 0-5.069 5.069l-2.392-.99-.843-.35a3.874 3.874 0 0 0-3.86-4.072c-1.57 0-2.973.937-3.574 2.388a3.872 3.872 0 0 0 3.571 5.347 3.856 3.856 0 0 0 2.878-1.28l.839.347 2.392.99A12.503 12.503 0 0 0 19.453 32c0 1.245.184 2.449.523 3.585l-2.392.991-.84.348a3.857 3.857 0 0 0-4.356-.986 3.872 3.872 0 0 0-2.092 5.052 3.857 3.857 0 0 0 3.573 2.388 3.873 3.873 0 0 0 3.86-4.072l.844-.35 2.392-.99a12.637 12.637 0 0 0 5.069 5.07l-.99 2.391-.35.843a3.857 3.857 0 0 0-3.777 2.382A3.872 3.872 0 0 0 24.489 54c1.57 0 2.973-.937 3.573-2.388a3.873 3.873 0 0 0-.986-4.355l.348-.84.991-2.393c1.137.34 2.34.523 3.585.523 1.246 0 2.449-.183 3.585-.523l.991 2.393.349.84a3.874 3.874 0 0 0-.987 4.355A3.857 3.857 0 0 0 39.512 54a3.872 3.872 0 0 0 3.572-5.348 3.857 3.857 0 0 0-3.778-2.382l-.349-.843-.99-2.392a12.637 12.637 0 0 0 5.068-5.069l2.392.99.844.35a3.874 3.874 0 0 0 3.86 4.072c1.57 0 2.973-.937 3.574-2.388a3.871 3.871 0 0 0-2.093-5.053ZM32 41.968c-5.496 0-9.968-4.471-9.968-9.968s4.472-9.97 9.968-9.97c5.497 0 9.97 4.472 9.97 9.969 0 5.497-4.473 9.969-9.97 9.969Z" fill="url(#b)"/><path d="M32 24.61c-4.075 0-7.39 3.315-7.39 7.39 0 4.075 3.315 7.39 7.39 7.39 4.075 0 7.39-3.315 7.39-7.39 0-4.075-3.315-7.39-7.39-7.39Zm1.29 10.226h-2.58v-5.672h2.578v5.672Z" fill="#000"/><path d="M32 24.61c-4.075 0-7.39 3.315-7.39 7.39 0 4.075 3.315 7.39 7.39 7.39 4.075 0 7.39-3.315 7.39-7.39 0-4.075-3.315-7.39-7.39-7.39Zm1.29 10.226h-2.58v-5.672h2.578v5.672Z" fill="url(#c)"/></g><defs><linearGradient id="b" x1="32" y1="10" x2="32" y2="54" gradientUnits="userSpaceOnUse"><stop stop-color="#EF8080"/><stop offset="1" stop-color="#F0145A"/></linearGradient><linearGradient id="c" x1="32" y1="24.609" x2="32" y2="39.391" gradientUnits="userSpaceOnUse"><stop stop-color="#EF8080"/><stop offset="1" stop-color="#F0145A"/></linearGradient><clipPath id="a"><path fill="#fff" transform="translate(10 10)" d="M0 0h44v44H0z"/></clipPath></defs></svg>