<svg width="64" height="64" fill="none" xmlns="http://www.w3.org/2000/svg"><rect width="64" height="64" rx="18" fill="#fff"/><path d="M38.347 35.916a9.71 9.71 0 0 1 4.624 1.17c.256.138.49.302.73.46 2.31-4.523 3.53-9.308 3.53-13.975 0-.263 0-.533-.008-.804a.855.855 0 0 0-.669-.795c-5.11-1.117-9.739-3.884-13.377-7.997l-.542-.617a.83.83 0 0 0-.634-.288c-.263-.034-.466.093-.627.27l-.829.915c-3.452 3.799-7.802 6.422-12.574 7.59l-.55.135a.831.831 0 0 0-.643.795c-.304 11.897 6.719 20.452 9.748 23.583a28.65 28.65 0 0 0 2.604 2.37 9.78 9.78 0 0 1-.514-3.08c0-5.367 4.365-9.732 9.73-9.732Z" fill="url(#a)"/><path d="M42.163 38.573a8.012 8.012 0 0 0-3.816-.965c-4.434 0-8.039 3.605-8.039 8.039 0 1.498.406 2.961 1.185 4.214a8.002 8.002 0 0 0 6.854 3.824c4.425 0 8.038-3.604 8.038-8.038a8.021 8.021 0 0 0-4.222-7.074Zm.3 6.004-6.287 4.892-2.146-3.357a.846.846 0 1 1 1.425-.912l1.147 1.794 4.822-3.753a.846.846 0 1 1 1.04 1.336Z" fill="url(#b)"/><defs><linearGradient id="a" x1="32" y1="13.065" x2="32" y2="48.728" gradientUnits="userSpaceOnUse"><stop stop-color="#EF8080"/><stop offset="1" stop-color="#F0145A"/></linearGradient><linearGradient id="b" x1="38.347" y1="37.608" x2="38.347" y2="53.685" gradientUnits="userSpaceOnUse"><stop stop-color="#EF8080"/><stop offset="1" stop-color="#F0145A"/></linearGradient></defs></svg>