<svg width="64" height="64" fill="none" xmlns="http://www.w3.org/2000/svg"><rect width="64" height="64" rx="18" fill="#fff"/><path d="M26.25 29.304c.768 0 1.391-.623 1.391-1.391v-5.426c0-2.426 1.974-4.4 4.4-4.4 2.425 0 4.4 1.974 4.4 4.4v5.426a1.391 1.391 0 0 0 2.782 0v-5.426c0-3.96-3.222-7.183-7.183-7.183-3.96 0-7.182 3.223-7.182 7.183v5.426c0 .768.624 1.391 1.392 1.391Z" fill="url(#a)"/><path d="M48 26.178h-7.385v1.735a2.785 2.785 0 0 1-2.783 2.783 2.785 2.785 0 0 1-2.782-2.783v-1.735h-6.017v1.735a2.785 2.785 0 0 1-2.783 2.783 2.785 2.785 0 0 1-2.782-2.783v-1.735H16c-.384 0-.621.303-.53.676l4.868 19.824c.294 1.114 1.466 2.018 2.618 2.018h18.088c1.153 0 2.324-.904 2.62-2.018l4.866-19.824c.091-.374-.145-.676-.53-.676Z" fill="url(#b)"/><path d="M29.635 33.67a.974.974 0 1 1 1.948 0v4.834-.939a.974.974 0 1 1 1.948 0v1.166c.008-.53.44-1.653.973-1.653.538 0 .974.436.974.974 0 0 .029.724.093.768.156-.33.492-1.255.881-1.255.538 0 .974.436.974.974v4.87a1.948 1.948 0 0 1-1.948 1.948h-3.256a3.896 3.896 0 0 1-2.754-1.141l-1.538-1.538-2.19-.98c.003-.93.731-1.211 1.46-1.211.628 0 1.192.098 2.435.73V33.67Z" fill="#fff"/><defs><linearGradient id="a" x1="32.041" y1="15.304" x2="32.041" y2="29.304" gradientUnits="userSpaceOnUse"><stop stop-color="#EF8080"/><stop offset="1" stop-color="#F0145A"/></linearGradient><linearGradient id="b" x1="32" y1="26.178" x2="32" y2="48.696" gradientUnits="userSpaceOnUse"><stop stop-color="#EF8080"/><stop offset="1" stop-color="#F0145A"/></linearGradient></defs></svg>