<svg width="64" height="64" fill="none" xmlns="http://www.w3.org/2000/svg"><rect width="64" height="64" rx="18" fill="#fff"/><path fill-rule="evenodd" clip-rule="evenodd" d="M46.748 34.115v11.89c0 2.127-1.667 3.87-3.704 3.87H20.98c-2.038 0-3.705-1.743-3.705-3.87v-11.89h11.458v5.164l3.278 2.154 3.279-2.154v-5.164h11.458Z" fill="url(#a)"/><path fill-rule="evenodd" clip-rule="evenodd" d="M29.881 34.115v4.543l2.13 1.4 2.13-1.4v-4.543h-4.26Z" fill="url(#b)"/><path fill-rule="evenodd" clip-rule="evenodd" d="M18.3 20.41h27.422c1.295 0 2.352 1.175 2.352 2.61v7.049c0 1.435-1.057 2.61-2.352 2.61H18.301c-1.295 0-2.352-1.175-2.352-2.61v-7.05c0-1.434 1.057-2.608 2.352-2.608Z" fill="url(#c)"/><path fill-rule="evenodd" clip-rule="evenodd" d="M26.302 14.094h11.42c1.06 0 1.928.868 1.928 1.929v3.01h-2.446v-1.78a.875.875 0 0 0-.871-.872H27.69a.875.875 0 0 0-.871.873v1.778h-2.446v-3.01c0-1.06.868-1.928 1.929-1.928Z" fill="url(#d)"/><defs><linearGradient id="a" x1="32.011" y1="34.115" x2="32.011" y2="49.875" gradientUnits="userSpaceOnUse"><stop stop-color="#EF8080"/><stop offset="1" stop-color="#F0145A"/></linearGradient><linearGradient id="b" x1="32.011" y1="34.115" x2="32.011" y2="40.058" gradientUnits="userSpaceOnUse"><stop stop-color="#EF8080"/><stop offset="1" stop-color="#F0145A"/></linearGradient><linearGradient id="c" x1="32.012" y1="20.41" x2="32.012" y2="32.678" gradientUnits="userSpaceOnUse"><stop stop-color="#EF8080"/><stop offset="1" stop-color="#F0145A"/></linearGradient><linearGradient id="d" x1="32.012" y1="14.094" x2="32.012" y2="19.032" gradientUnits="userSpaceOnUse"><stop stop-color="#EF8080"/><stop offset="1" stop-color="#F0145A"/></linearGradient></defs></svg>